<?xml version="1.0" encoding="UTF-8"?>
<svg width="30mm" height="30mm" version="1.1" viewBox="0 0 30 30" xmlns="http://www.w3.org/2000/svg" xmlns:cc="http://creativecommons.org/ns#" xmlns:dc="http://purl.org/dc/elements/1.1/" xmlns:rdf="http://www.w3.org/1999/02/22-rdf-syntax-ns#">
 <metadata>
  <rdf:RDF>
   <cc:Work rdf:about="">
    <dc:format>image/svg+xml</dc:format>
    <dc:type rdf:resource="http://purl.org/dc/dcmitype/StillImage"/>
    <dc:title/>
   </cc:Work>
  </rdf:RDF>
 </metadata>
 <g transform="translate(-56.8 -129.89)">
  <g transform="matrix(.90978 0 0 .92955 6.3667 11.243)">
   <g transform="matrix(-1.5015 0 0 .86965 146.91 7.7457)">
    <path d="m48.823 143.89 3.8546 0.10887 0.07448 0.5711-3.8676 0.0359-0.06156-0.71589" fill="#038e79"/>
    <path d="m48.86 144.3 3.8922 0.27148-0.07448-0.57106-3.8177 0.29958" fill="#008d9a"/>
    <path d="m48.86 144.3-0.03694-0.40845 3.8485 0.10887-3.8116 0.29958" fill="#038e79"/>
    <path d="m48.866 144.3 0.01837 0.30738 3.8676-0.0359z" fill="#00769a"/>
   </g>
   <g transform="matrix(-2.0068 0 0 .86965 170.78 27.184)">
    <path d="m48.823 143.89 3.8546 0.10887 0.07448 0.5711-3.8676 0.0359-0.06156-0.71589" fill="#038e79"/>
    <path d="m48.86 144.3 3.8922 0.27148-0.07448-0.57106-3.8177 0.29958" fill="#008d9a"/>
    <path d="m48.86 144.3-0.03694-0.40845 3.8485 0.10887-3.8116 0.29958" fill="#038e79"/>
    <path d="m48.866 144.3 0.01837 0.30738 3.8676-0.0359z" fill="#00769a"/>
   </g>
   <g transform="matrix(1.1132 .012116 .0052027 -.86962 26.001 260.93)">
    <path d="m48.823 143.89 3.8546 0.10887 0.07448 0.5711-3.8676 0.0359-0.06156-0.71589" fill="#038e79"/>
    <path d="m48.86 144.3 3.8922 0.27148-0.07448-0.57106-3.8177 0.29958" fill="#008d9a"/>
    <path d="m48.86 144.3-0.03694-0.40845 3.8485 0.10887-3.8116 0.29958" fill="#038e79"/>
    <path d="m48.866 144.3 0.01837 0.30738 3.8676-0.0359z" fill="#00769a"/>
   </g>
   <g transform="matrix(1.1132 .012116 .0052027 -.86962 25.004 274.83)">
    <path d="m48.823 143.89 3.8546 0.10887 0.07448 0.5711-3.8676 0.0359-0.06156-0.71589" fill="#038e79"/>
    <path d="m48.86 144.3 3.8922 0.27148-0.07448-0.57106-3.8177 0.29958" fill="#008d9a"/>
    <path d="m48.86 144.3-0.03694-0.40845 3.8485 0.10887-3.8116 0.29958" fill="#038e79"/>
    <path d="m48.866 144.3 0.01837 0.30738 3.8676-0.0359z" fill="#00769a"/>
   </g>
   <g transform="matrix(-.60566 0 0 .85971 102.74 23.117)">
    <path d="m48.823 143.89 3.8546 0.10887 0.07448 0.5711-3.8676 0.0359-0.06156-0.71589" fill="#038e79"/>
    <path d="m48.86 144.3 3.8922 0.27148-0.07448-0.57106-3.8177 0.29958" fill="#008d9a"/>
    <path d="m48.86 144.3-0.03694-0.40845 3.8485 0.10887-3.8116 0.29958" fill="#038e79"/>
    <path d="m48.866 144.3 0.01837 0.30738 3.8676-0.0359z" fill="#00769a"/>
   </g>
   <g transform="matrix(-.017362 1.2602 -.86853 -.038589 197.27 86.506)">
    <path d="m48.823 143.89 3.8546 0.10887 0.07448 0.5711-3.8676 0.0359-0.06156-0.71589" fill="#038e79"/>
    <path d="m48.86 144.3 3.8922 0.27148-0.07448-0.57106-3.8177 0.29958" fill="#008d9a"/>
    <path d="m48.86 144.3-0.03694-0.40845 3.8485 0.10887-3.8116 0.29958" fill="#038e79"/>
    <path d="m48.866 144.3 0.01837 0.30738 3.8676-0.0359z" fill="#00769a"/>
   </g>
   <g transform="matrix(.70197 0 0 -.86879 34.084 267.82)">
    <path d="m48.823 143.89 3.8546 0.10887 0.07448 0.5711-3.8676 0.0359-0.06156-0.71589" fill="#038e79"/>
    <path d="m48.86 144.3 3.8922 0.27148-0.07448-0.57106-3.8177 0.29958" fill="#008d9a"/>
    <path d="m48.86 144.3-0.03694-0.40845 3.8485 0.10887-3.8116 0.29958" fill="#038e79"/>
    <path d="m48.866 144.3 0.01837 0.30738 3.8676-0.0359z" fill="#00769a"/>
   </g>
   <g transform="matrix(-1.0005 0 0 -.86879 109.58 264.97)">
    <path d="m48.823 143.89 3.8546 0.10887 0.07448 0.5711-3.8676 0.0359-0.06156-0.71589" fill="#038e79"/>
    <path d="m48.86 144.3 3.8922 0.27148-0.07448-0.57106-3.8177 0.29958" fill="#008d9a"/>
    <path d="m48.86 144.3-0.03694-0.40845 3.8485 0.10887-3.8116 0.29958" fill="#038e79"/>
    <path d="m48.866 144.3 0.01837 0.30738 3.8676-0.0359z" fill="#00769a"/>
   </g>
   <g transform="matrix(-1.0005 0 0 .86965 109.59 19.701)">
    <path d="m48.823 143.89 3.8546 0.10887 0.07448 0.5711-3.8676 0.0359-0.06156-0.71589" fill="#038e79"/>
    <path d="m48.86 144.3 3.8922 0.27148-0.07448-0.57106-3.8177 0.29958" fill="#008d9a"/>
    <path d="m48.86 144.3-0.03694-0.40845 3.8485 0.10887-3.8116 0.29958" fill="#038e79"/>
    <path d="m48.866 144.3 0.01837 0.30738 3.8676-0.0359z" fill="#00769a"/>
   </g>
   <g>
    <path d="m60.722 148.59h7.6205v-12.278h-7.585s-0.10205 12.407-0.03576 12.278z" fill="#e2e2e2"/>
    <path d="m68.343 148.59v-12.278l-3.8103 12.278z" fill="#dbdbdb"/>
    <path d="m64.533 148.59h-3.8105l5.692-6.0922z" fill="#e2e2e2"/>
    <path d="m60.722 148.59 7.6205-12.278-1.9288 6.1853z" fill="#d8d8d8"/>
    <path d="m60.722 148.59 0.03551-12.278 3.7634 6.1388z" fill="#ececec"/>
    <path d="m64.506 142.44 3.8216-6.1388h-7.585l3.7748 6.1388 7e-3 0.0103" fill="#e2e2e2"/>
   </g>
   <g transform="matrix(1.3162 0 0 1.3162 -25.527 -43.954)">
    <path d="m71.426 142.31 0.57863-0.46506-0.17393-0.70449-0.61964-0.2028-0.51823 0.41641 0.06055 0.69074z" fill="#008d9a"/>
    <path d="m70.753 142.04 0.67261 0.2652-0.21493-1.3724-0.45768 1.1072" fill="#00769a"/>
    <path d="m70.753 142.04-0.06055-0.69074 0.51823-0.41641-0.45768 1.1072" fill="#008d9a"/>
    <path d="m71.211 140.93 0.61963 0.2028-0.4047 1.1696z" fill="#008d9a"/>
    <path d="m71.426 142.31 0.57863-0.46506-0.17393-0.70449-0.4047 1.1696" fill="#038e79"/>
   </g>
   <g transform="matrix(1.3162 0 0 1.3162 -33.17 -46.753)">
    <path d="m71.426 142.31 0.57863-0.46506-0.17393-0.70449-0.61964-0.2028-0.51823 0.41641 0.06055 0.69074z" fill="#008d9a"/>
    <path d="m70.753 142.04 0.67261 0.2652-0.21493-1.3724-0.45768 1.1072" fill="#00769a"/>
    <path d="m70.753 142.04-0.06055-0.69074 0.51823-0.41641-0.45768 1.1072" fill="#008d9a"/>
    <path d="m71.211 140.93 0.61963 0.2028-0.4047 1.1696z" fill="#008d9a"/>
    <path d="m71.426 142.31 0.57863-0.46506-0.17393-0.70449-0.4047 1.1696" fill="#038e79"/>
   </g>
   <g transform="matrix(1.3162 0 0 1.3162 -33.21 -41.253)">
    <path d="m71.426 142.31 0.57863-0.46506-0.17393-0.70449-0.61964-0.2028-0.51823 0.41641 0.06055 0.69074z" fill="#008d9a"/>
    <path d="m70.753 142.04 0.67261 0.2652-0.21493-1.3724-0.45768 1.1072" fill="#00769a"/>
    <path d="m70.753 142.04-0.06055-0.69074 0.51823-0.41641-0.45768 1.1072" fill="#008d9a"/>
    <path d="m71.211 140.93 0.61963 0.2028-0.4047 1.1696z" fill="#008d9a"/>
    <path d="m71.426 142.31 0.57863-0.46506-0.17393-0.70449-0.4047 1.1696" fill="#038e79"/>
   </g>
   <text x="61.167824" y="137.74814" fill="#ff4000" font-family="sans-serif" font-size="1.4111px" stroke-width=".26458" style="line-height:1.25" xml:space="preserve"><tspan x="61.167824" y="137.74814" fill="#ff4000" font-size="1.4111px" stroke-width=".26458">OR</tspan></text>
   <g transform="translate(12.776 -6.4115)">
    <path d="m60.722 148.59h7.6205v-12.278h-7.585s-0.10205 12.407-0.03576 12.278z" fill="#e2e2e2"/>
    <path d="m68.343 148.59v-12.278l-3.8103 12.278z" fill="#dbdbdb"/>
    <path d="m64.533 148.59h-3.8105l5.692-6.0922z" fill="#e2e2e2"/>
    <path d="m60.722 148.59 7.6205-12.278-1.9288 6.1853z" fill="#d8d8d8"/>
    <path d="m60.722 148.59 0.03551-12.278 3.7634 6.1388z" fill="#ececec"/>
    <path d="m64.506 142.44 3.8216-6.1388h-7.585l3.7748 6.1388 7e-3 0.0103" fill="#e2e2e2"/>
   </g>
   <g transform="matrix(1.3162 0 0 1.3162 -12.751 -50.365)">
    <path d="m71.426 142.31 0.57863-0.46506-0.17393-0.70449-0.61964-0.2028-0.51823 0.41641 0.06055 0.69074z" fill="#008d9a"/>
    <path d="m70.753 142.04 0.67261 0.2652-0.21493-1.3724-0.45768 1.1072" fill="#00769a"/>
    <path d="m70.753 142.04-0.06055-0.69074 0.51823-0.41641-0.45768 1.1072" fill="#008d9a"/>
    <path d="m71.211 140.93 0.61963 0.2028-0.4047 1.1696z" fill="#008d9a"/>
    <path d="m71.426 142.31 0.57863-0.46506-0.17393-0.70449-0.4047 1.1696" fill="#038e79"/>
   </g>
   <g transform="matrix(1.3162 0 0 1.3162 -20.394 -53.165)">
    <path d="m71.426 142.31 0.57863-0.46506-0.17393-0.70449-0.61964-0.2028-0.51823 0.41641 0.06055 0.69074z" fill="#008d9a"/>
    <path d="m70.753 142.04 0.67261 0.2652-0.21493-1.3724-0.45768 1.1072" fill="#00769a"/>
    <path d="m70.753 142.04-0.06055-0.69074 0.51823-0.41641-0.45768 1.1072" fill="#008d9a"/>
    <path d="m71.211 140.93 0.61963 0.2028-0.4047 1.1696z" fill="#008d9a"/>
    <path d="m71.426 142.31 0.57863-0.46506-0.17393-0.70449-0.4047 1.1696" fill="#038e79"/>
   </g>
   <g transform="matrix(-.69167 0 0 -.86879 107.27 264.06)">
    <path d="m48.823 143.89 3.8546 0.10887 0.07448 0.5711-3.8676 0.0359-0.06156-0.71589" fill="#038e79"/>
    <path d="m48.86 144.3 3.8922 0.27148-0.07448-0.57106-3.8177 0.29958" fill="#008d9a"/>
    <path d="m48.86 144.3-0.03694-0.40845 3.8485 0.10887-3.8116 0.29958" fill="#038e79"/>
    <path d="m48.866 144.3 0.01837 0.30738 3.8676-0.0359z" fill="#00769a"/>
   </g>
   <g transform="matrix(1.3162 0 0 1.3162 -20.433 -47.665)">
    <path d="m71.426 142.31 0.57863-0.46506-0.17393-0.70449-0.61964-0.2028-0.51823 0.41641 0.06055 0.69074z" fill="#008d9a"/>
    <path d="m70.753 142.04 0.67261 0.2652-0.21493-1.3724-0.45768 1.1072" fill="#00769a"/>
    <path d="m70.753 142.04-0.06055-0.69074 0.51823-0.41641-0.45768 1.1072" fill="#008d9a"/>
    <path d="m71.211 140.93 0.61963 0.2028-0.4047 1.1696z" fill="#008d9a"/>
    <path d="m71.426 142.31 0.57863-0.46506-0.17393-0.70449-0.4047 1.1696" fill="#038e79"/>
   </g>
   <text x="73.944038" y="131.33664" fill="#ff4000" font-family="sans-serif" font-size="1.4111px" stroke-width=".26458" style="line-height:1.25" xml:space="preserve"><tspan x="73.944038" y="131.33664" fill="#ff4000" font-size="1.4111px" stroke-width=".26458">AND</tspan></text>
   <g transform="translate(12.098 7.5264)">
    <path d="m60.722 148.59h7.6205v-12.278h-7.585s-0.10205 12.407-0.03576 12.278z" fill="#e2e2e2"/>
    <path d="m68.343 148.59v-12.278l-3.8103 12.278z" fill="#dbdbdb"/>
    <path d="m64.533 148.59h-3.8105l5.692-6.0922z" fill="#e2e2e2"/>
    <path d="m60.722 148.59 7.6205-12.278-1.9288 6.1853z" fill="#d8d8d8"/>
    <path d="m60.722 148.59 0.03551-12.278 3.7634 6.1388z" fill="#ececec"/>
    <path d="m64.506 142.44 3.8216-6.1388h-7.585l3.7748 6.1388 7e-3 0.0103" fill="#e2e2e2"/>
   </g>
   <g transform="matrix(1.3162 0 0 1.3162 -13.429 -36.427)">
    <path d="m71.426 142.31 0.57863-0.46506-0.17393-0.70449-0.61964-0.2028-0.51823 0.41641 0.06055 0.69074z" fill="#008d9a"/>
    <path d="m70.753 142.04 0.67261 0.2652-0.21493-1.3724-0.45768 1.1072" fill="#00769a"/>
    <path d="m70.753 142.04-0.06055-0.69074 0.51823-0.41641-0.45768 1.1072" fill="#008d9a"/>
    <path d="m71.211 140.93 0.61963 0.2028-0.4047 1.1696z" fill="#008d9a"/>
    <path d="m71.426 142.31 0.57863-0.46506-0.17393-0.70449-0.4047 1.1696" fill="#038e79"/>
   </g>
   <g transform="matrix(1.3162 0 0 1.3162 -21.071 -39.227)">
    <path d="m71.426 142.31 0.57863-0.46506-0.17393-0.70449-0.61964-0.2028-0.51823 0.41641 0.06055 0.69074z" fill="#008d9a"/>
    <path d="m70.753 142.04 0.67261 0.2652-0.21493-1.3724-0.45768 1.1072" fill="#00769a"/>
    <path d="m70.753 142.04-0.06055-0.69074 0.51823-0.41641-0.45768 1.1072" fill="#008d9a"/>
    <path d="m71.211 140.93 0.61963 0.2028-0.4047 1.1696z" fill="#008d9a"/>
    <path d="m71.426 142.31 0.57863-0.46506-0.17393-0.70449-0.4047 1.1696" fill="#038e79"/>
   </g>
   <g transform="matrix(1.3162 0 0 1.3162 -21.111 -33.727)">
    <path d="m71.426 142.31 0.57863-0.46506-0.17393-0.70449-0.61964-0.2028-0.51823 0.41641 0.06055 0.69074z" fill="#008d9a"/>
    <path d="m70.753 142.04 0.67261 0.2652-0.21493-1.3724-0.45768 1.1072" fill="#00769a"/>
    <path d="m70.753 142.04-0.06055-0.69074 0.51823-0.41641-0.45768 1.1072" fill="#008d9a"/>
    <path d="m71.211 140.93 0.61963 0.2028-0.4047 1.1696z" fill="#008d9a"/>
    <path d="m71.426 142.31 0.57863-0.46506-0.17393-0.70449-0.4047 1.1696" fill="#038e79"/>
   </g>
   <text x="73.282265" y="145.23698" fill="#ff4000" font-family="sans-serif" font-size="1.4111px" stroke-width=".26458" style="line-height:1.25" xml:space="preserve"><tspan x="73.282265" y="145.23698" fill="#ff4000" font-size="1.4111px" stroke-width=".26458">AND</tspan></text>
   <g transform="matrix(-.017362 -1.0299 -.86853 .031537 197.27 188.23)">
    <path d="m48.823 143.89 3.8546 0.10887 0.07448 0.5711-3.8676 0.0359-0.06156-0.71589" fill="#038e79"/>
    <path d="m48.86 144.3 3.8922 0.27148-0.07448-0.57106-3.8177 0.29958" fill="#008d9a"/>
    <path d="m48.86 144.3-0.03694-0.40845 3.8485 0.10887-3.8116 0.29958" fill="#038e79"/>
    <path d="m48.866 144.3 0.01837 0.30738 3.8676-0.0359z" fill="#00769a"/>
   </g>
   <g transform="matrix(.72188 -.024596 -.025861 -.68658 22.878 239.52)">
    <g transform="matrix(.15279 -1.0384 .93953 .15988 -72.196 190.21)">
     <path d="m71.426 142.31 0.57863-0.46506-0.17393-0.70449-0.61964-0.2028-0.51823 0.41641 0.06055 0.69074z" fill="#008d9a"/>
     <path d="m70.753 142.04 0.67261 0.2652-0.21493-1.3724-0.45768 1.1072" fill="#00769a"/>
     <path d="m70.753 142.04-0.06055-0.69074 0.51823-0.41641-0.45768 1.1072" fill="#008d9a"/>
     <path d="m71.211 140.93 0.61963 0.2028-0.4047 1.1696z" fill="#008d9a"/>
     <path d="m71.426 142.31 0.57863-0.46506-0.17393-0.70449-0.4047 1.1696" fill="#038e79"/>
    </g>
   </g>
   <text transform="scale(.90558 1.1043)" x="76.704094" y="143.08656" fill="#ff9200" font-family="sans-serif" font-size="4.7065px" stroke-width=".11766" style="line-height:1.25" xml:space="preserve"><tspan x="76.704094" y="143.08656" fill="#ff9200" font-family="sans-serif" font-weight="bold" stroke-width=".11766">LOGIXX</tspan></text>
  </g>
  <g fill="none" stroke="#000" stroke-width=".26458px">
   <path d="m66.193 98.934 0.23236 8.2219 1.2778-1.2121z"/>
   <path d="m66.193 98.934 1.28-0.2031 0.23021 7.2129z"/>
   <path d="m67.703 105.94 3.7586-0.19177 0.11452 1.4637z"/>
   <path d="m67.703 105.94-1.2778 1.2121 5.151 0.0598-3.8732-1.2719"/>
   <path d="m74.543 99.124-2.9724 2.0375 1.4262 0.35883z"/>
   <path d="m73.77 100.32 2.8315-0.91405-2.0585-0.2841z"/>
   <path d="m75.185 99.865 1.9563 1.0443-0.54052-1.5013z"/>
   <path d="m77.142 100.91 1.5122 1.3594-2.0528-2.8608z"/>
   <path d="m77.142 100.91 0.46158 3.3121 1.0507-1.9527z"/>
   <path d="m77.603 104.22 1.0507-1.9527-0.47666 3.197z"/>
   <path d="m77.603 104.22-1.4719 1.8236 2.0459-0.57933z"/>
   <path d="m78.177 105.47-2.4664 1.9485 0.42056-1.3691z"/>
   <path d="m75.711 107.41-2.3331-0.0982 2.7536-1.2709z"/>
   <path d="m76.131 106.04-2.8605-0.48343 0.10692 1.7544z"/>
   <path d="m73.378 107.32-1.6786-2.5486 1.5717 0.79422z"/>
   <path d="m73.271 105.56-1.5717-0.79422-0.55821-2.28z"/>
   <path d="m73.271 105.56-1.7005-4.4002-0.42934 1.3261z"/>
   <path d="m73.271 105.56-0.27429-4.0414-0.80196 1.6812z"/>
   <path d="m72.421 103.36 0.57598-1.8413-1.4262-0.35883z"/>
  </g>
  <g transform="matrix(-1.5015 0 0 .86965 226.82 -94.333)">
   <path d="m48.823 143.89 3.8546 0.10887 0.07448 0.5711-3.8676 0.0359-0.06156-0.71589" fill="#038e79"/>
   <path d="m48.86 144.3 3.8922 0.27148-0.07448-0.57106-3.8177 0.29958" fill="#008d9a"/>
   <path d="m48.86 144.3-0.03694-0.40845 3.8485 0.10887-3.8116 0.29958" fill="#038e79"/>
   <path d="m48.866 144.3 0.01837 0.30738 3.8676-0.0359z" fill="#00769a"/>
  </g>
  <g transform="matrix(-2.0068 0 0 .86965 250.68 -74.895)">
   <path d="m48.823 143.89 3.8546 0.10887 0.07448 0.5711-3.8676 0.0359-0.06156-0.71589" fill="#038e79"/>
   <path d="m48.86 144.3 3.8922 0.27148-0.07448-0.57106-3.8177 0.29958" fill="#008d9a"/>
   <path d="m48.86 144.3-0.03694-0.40845 3.8485 0.10887-3.8116 0.29958" fill="#038e79"/>
   <path d="m48.866 144.3 0.01837 0.30738 3.8676-0.0359z" fill="#00769a"/>
  </g>
  <g transform="matrix(1.1132 .012116 .0052027 -.86962 105.91 158.85)">
   <path d="m48.823 143.89 3.8546 0.10887 0.07448 0.5711-3.8676 0.0359-0.06156-0.71589" fill="#038e79"/>
   <path d="m48.86 144.3 3.8922 0.27148-0.07448-0.57106-3.8177 0.29958" fill="#008d9a"/>
   <path d="m48.86 144.3-0.03694-0.40845 3.8485 0.10887-3.8116 0.29958" fill="#038e79"/>
   <path d="m48.866 144.3 0.01837 0.30738 3.8676-0.0359z" fill="#00769a"/>
  </g>
  <g transform="matrix(1.1132 .012116 .0052027 -.86962 104.91 172.75)">
   <path d="m48.823 143.89 3.8546 0.10887 0.07448 0.5711-3.8676 0.0359-0.06156-0.71589" fill="#038e79"/>
   <path d="m48.86 144.3 3.8922 0.27148-0.07448-0.57106-3.8177 0.29958" fill="#008d9a"/>
   <path d="m48.86 144.3-0.03694-0.40845 3.8485 0.10887-3.8116 0.29958" fill="#038e79"/>
   <path d="m48.866 144.3 0.01837 0.30738 3.8676-0.0359z" fill="#00769a"/>
  </g>
  <g transform="matrix(-.60566 0 0 .85971 182.64 -78.962)">
   <path d="m48.823 143.89 3.8546 0.10887 0.07448 0.5711-3.8676 0.0359-0.06156-0.71589" fill="#038e79"/>
   <path d="m48.86 144.3 3.8922 0.27148-0.07448-0.57106-3.8177 0.29958" fill="#008d9a"/>
   <path d="m48.86 144.3-0.03694-0.40845 3.8485 0.10887-3.8116 0.29958" fill="#038e79"/>
   <path d="m48.866 144.3 0.01837 0.30738 3.8676-0.0359z" fill="#00769a"/>
  </g>
  <g transform="matrix(-.017362 1.2602 -.86853 -.038589 277.17 -15.573)">
   <path d="m48.823 143.89 3.8546 0.10887 0.07448 0.5711-3.8676 0.0359-0.06156-0.71589" fill="#038e79"/>
   <path d="m48.86 144.3 3.8922 0.27148-0.07448-0.57106-3.8177 0.29958" fill="#008d9a"/>
   <path d="m48.86 144.3-0.03694-0.40845 3.8485 0.10887-3.8116 0.29958" fill="#038e79"/>
   <path d="m48.866 144.3 0.01837 0.30738 3.8676-0.0359z" fill="#00769a"/>
  </g>
  <g transform="matrix(.70197 0 0 -.86879 113.99 165.74)">
   <path d="m48.823 143.89 3.8546 0.10887 0.07448 0.5711-3.8676 0.0359-0.06156-0.71589" fill="#038e79"/>
   <path d="m48.86 144.3 3.8922 0.27148-0.07448-0.57106-3.8177 0.29958" fill="#008d9a"/>
   <path d="m48.86 144.3-0.03694-0.40845 3.8485 0.10887-3.8116 0.29958" fill="#038e79"/>
   <path d="m48.866 144.3 0.01837 0.30738 3.8676-0.0359z" fill="#00769a"/>
  </g>
  <g transform="matrix(-1.0005 0 0 -.86879 189.48 162.89)">
   <path d="m48.823 143.89 3.8546 0.10887 0.07448 0.5711-3.8676 0.0359-0.06156-0.71589" fill="#038e79"/>
   <path d="m48.86 144.3 3.8922 0.27148-0.07448-0.57106-3.8177 0.29958" fill="#008d9a"/>
   <path d="m48.86 144.3-0.03694-0.40845 3.8485 0.10887-3.8116 0.29958" fill="#038e79"/>
   <path d="m48.866 144.3 0.01837 0.30738 3.8676-0.0359z" fill="#00769a"/>
  </g>
  <g transform="matrix(-1.0005 0 0 .86965 189.5 -82.378)">
   <path d="m48.823 143.89 3.8546 0.10887 0.07448 0.5711-3.8676 0.0359-0.06156-0.71589" fill="#038e79"/>
   <path d="m48.86 144.3 3.8922 0.27148-0.07448-0.57106-3.8177 0.29958" fill="#008d9a"/>
   <path d="m48.86 144.3-0.03694-0.40845 3.8485 0.10887-3.8116 0.29958" fill="#038e79"/>
   <path d="m48.866 144.3 0.01837 0.30738 3.8676-0.0359z" fill="#00769a"/>
  </g>
  <g transform="translate(79.906 -102.08)">
   <path d="m60.722 148.59h7.6205v-12.278h-7.585s-0.10205 12.407-0.03576 12.278z" fill="#e2e2e2"/>
   <path d="m68.343 148.59v-12.278l-3.8103 12.278z" fill="#dbdbdb"/>
   <path d="m64.533 148.59h-3.8105l5.692-6.0922z" fill="#e2e2e2"/>
   <path d="m60.722 148.59 7.6205-12.278-1.9288 6.1853z" fill="#d8d8d8"/>
   <path d="m60.722 148.59 0.03551-12.278 3.7634 6.1388z" fill="#ececec"/>
   <path d="m64.506 142.44 3.8216-6.1388h-7.585l3.7748 6.1388 7e-3 0.0103" fill="#e2e2e2"/>
  </g>
  <g transform="matrix(1.3162 0 0 1.3162 54.379 -146.03)">
   <path d="m71.426 142.31 0.57863-0.46506-0.17393-0.70449-0.61964-0.2028-0.51823 0.41641 0.06055 0.69074z" fill="#008d9a"/>
   <path d="m70.753 142.04 0.67261 0.2652-0.21493-1.3724-0.45768 1.1072" fill="#00769a"/>
   <path d="m70.753 142.04-0.06055-0.69074 0.51823-0.41641-0.45768 1.1072" fill="#008d9a"/>
   <path d="m71.211 140.93 0.61963 0.2028-0.4047 1.1696z" fill="#008d9a"/>
   <path d="m71.426 142.31 0.57863-0.46506-0.17393-0.70449-0.4047 1.1696" fill="#038e79"/>
  </g>
  <g transform="matrix(1.3162 0 0 1.3162 46.736 -148.83)">
   <path d="m71.426 142.31 0.57863-0.46506-0.17393-0.70449-0.61964-0.2028-0.51823 0.41641 0.06055 0.69074z" fill="#008d9a"/>
   <path d="m70.753 142.04 0.67261 0.2652-0.21493-1.3724-0.45768 1.1072" fill="#00769a"/>
   <path d="m70.753 142.04-0.06055-0.69074 0.51823-0.41641-0.45768 1.1072" fill="#008d9a"/>
   <path d="m71.211 140.93 0.61963 0.2028-0.4047 1.1696z" fill="#008d9a"/>
   <path d="m71.426 142.31 0.57863-0.46506-0.17393-0.70449-0.4047 1.1696" fill="#038e79"/>
  </g>
  <g transform="matrix(1.3162 0 0 1.3162 46.697 -143.33)">
   <path d="m71.426 142.31 0.57863-0.46506-0.17393-0.70449-0.61964-0.2028-0.51823 0.41641 0.06055 0.69074z" fill="#008d9a"/>
   <path d="m70.753 142.04 0.67261 0.2652-0.21493-1.3724-0.45768 1.1072" fill="#00769a"/>
   <path d="m70.753 142.04-0.06055-0.69074 0.51823-0.41641-0.45768 1.1072" fill="#008d9a"/>
   <path d="m71.211 140.93 0.61963 0.2028-0.4047 1.1696z" fill="#008d9a"/>
   <path d="m71.426 142.31 0.57863-0.46506-0.17393-0.70449-0.4047 1.1696" fill="#038e79"/>
  </g>
  <text x="141.0739" y="35.669357" fill="#ff4000" font-family="sans-serif" font-size="1.4111px" stroke-width=".26458" style="line-height:1.25" xml:space="preserve"><tspan x="141.0739" y="35.669357" fill="#ff4000" font-size="1.4111px" stroke-width=".26458">OR</tspan></text>
  <g transform="translate(92.682 -108.49)">
   <path d="m60.722 148.59h7.6205v-12.278h-7.585s-0.10205 12.407-0.03576 12.278z" fill="#e2e2e2"/>
   <path d="m68.343 148.59v-12.278l-3.8103 12.278z" fill="#dbdbdb"/>
   <path d="m64.533 148.59h-3.8105l5.692-6.0922z" fill="#e2e2e2"/>
   <path d="m60.722 148.59 7.6205-12.278-1.9288 6.1853z" fill="#d8d8d8"/>
   <path d="m60.722 148.59 0.03551-12.278 3.7634 6.1388z" fill="#ececec"/>
   <path d="m64.506 142.44 3.8216-6.1388h-7.585l3.7748 6.1388 7e-3 0.0103" fill="#e2e2e2"/>
  </g>
  <g transform="matrix(1.3162 0 0 1.3162 67.155 -152.44)">
   <path d="m71.426 142.31 0.57863-0.46506-0.17393-0.70449-0.61964-0.2028-0.51823 0.41641 0.06055 0.69074z" fill="#008d9a"/>
   <path d="m70.753 142.04 0.67261 0.2652-0.21493-1.3724-0.45768 1.1072" fill="#00769a"/>
   <path d="m70.753 142.04-0.06055-0.69074 0.51823-0.41641-0.45768 1.1072" fill="#008d9a"/>
   <path d="m71.211 140.93 0.61963 0.2028-0.4047 1.1696z" fill="#008d9a"/>
   <path d="m71.426 142.31 0.57863-0.46506-0.17393-0.70449-0.4047 1.1696" fill="#038e79"/>
  </g>
  <g transform="matrix(1.3162 0 0 1.3162 59.513 -155.24)">
   <path d="m71.426 142.31 0.57863-0.46506-0.17393-0.70449-0.61964-0.2028-0.51823 0.41641 0.06055 0.69074z" fill="#008d9a"/>
   <path d="m70.753 142.04 0.67261 0.2652-0.21493-1.3724-0.45768 1.1072" fill="#00769a"/>
   <path d="m70.753 142.04-0.06055-0.69074 0.51823-0.41641-0.45768 1.1072" fill="#008d9a"/>
   <path d="m71.211 140.93 0.61963 0.2028-0.4047 1.1696z" fill="#008d9a"/>
   <path d="m71.426 142.31 0.57863-0.46506-0.17393-0.70449-0.4047 1.1696" fill="#038e79"/>
  </g>
  <g transform="matrix(-.69167 0 0 -.86879 187.18 161.98)">
   <path d="m48.823 143.89 3.8546 0.10887 0.07448 0.5711-3.8676 0.0359-0.06156-0.71589" fill="#038e79"/>
   <path d="m48.86 144.3 3.8922 0.27148-0.07448-0.57106-3.8177 0.29958" fill="#008d9a"/>
   <path d="m48.86 144.3-0.03694-0.40845 3.8485 0.10887-3.8116 0.29958" fill="#038e79"/>
   <path d="m48.866 144.3 0.01837 0.30738 3.8676-0.0359z" fill="#00769a"/>
  </g>
  <g transform="matrix(1.3162 0 0 1.3162 59.473 -149.74)">
   <path d="m71.426 142.31 0.57863-0.46506-0.17393-0.70449-0.61964-0.2028-0.51823 0.41641 0.06055 0.69074z" fill="#008d9a"/>
   <path d="m70.753 142.04 0.67261 0.2652-0.21493-1.3724-0.45768 1.1072" fill="#00769a"/>
   <path d="m70.753 142.04-0.06055-0.69074 0.51823-0.41641-0.45768 1.1072" fill="#008d9a"/>
   <path d="m71.211 140.93 0.61963 0.2028-0.4047 1.1696z" fill="#008d9a"/>
   <path d="m71.426 142.31 0.57863-0.46506-0.17393-0.70449-0.4047 1.1696" fill="#038e79"/>
  </g>
  <text x="153.85011" y="29.25786" fill="#ff4000" font-family="sans-serif" font-size="1.4111px" stroke-width=".26458" style="line-height:1.25" xml:space="preserve"><tspan x="153.85011" y="29.25786" fill="#ff4000" font-size="1.4111px" stroke-width=".26458">AND</tspan></text>
  <g transform="translate(92.004 -94.552)">
   <path d="m60.722 148.59h7.6205v-12.278h-7.585s-0.10205 12.407-0.03576 12.278z" fill="#e2e2e2"/>
   <path d="m68.343 148.59v-12.278l-3.8103 12.278z" fill="#dbdbdb"/>
   <path d="m64.533 148.59h-3.8105l5.692-6.0922z" fill="#e2e2e2"/>
   <path d="m60.722 148.59 7.6205-12.278-1.9288 6.1853z" fill="#d8d8d8"/>
   <path d="m60.722 148.59 0.03551-12.278 3.7634 6.1388z" fill="#ececec"/>
   <path d="m64.506 142.44 3.8216-6.1388h-7.585l3.7748 6.1388 7e-3 0.0103" fill="#e2e2e2"/>
  </g>
  <g transform="matrix(1.3162 0 0 1.3162 66.477 -138.51)">
   <path d="m71.426 142.31 0.57863-0.46506-0.17393-0.70449-0.61964-0.2028-0.51823 0.41641 0.06055 0.69074z" fill="#008d9a"/>
   <path d="m70.753 142.04 0.67261 0.2652-0.21493-1.3724-0.45768 1.1072" fill="#00769a"/>
   <path d="m70.753 142.04-0.06055-0.69074 0.51823-0.41641-0.45768 1.1072" fill="#008d9a"/>
   <path d="m71.211 140.93 0.61963 0.2028-0.4047 1.1696z" fill="#008d9a"/>
   <path d="m71.426 142.31 0.57863-0.46506-0.17393-0.70449-0.4047 1.1696" fill="#038e79"/>
  </g>
  <g transform="matrix(1.3162 0 0 1.3162 58.835 -141.31)">
   <path d="m71.426 142.31 0.57863-0.46506-0.17393-0.70449-0.61964-0.2028-0.51823 0.41641 0.06055 0.69074z" fill="#008d9a"/>
   <path d="m70.753 142.04 0.67261 0.2652-0.21493-1.3724-0.45768 1.1072" fill="#00769a"/>
   <path d="m70.753 142.04-0.06055-0.69074 0.51823-0.41641-0.45768 1.1072" fill="#008d9a"/>
   <path d="m71.211 140.93 0.61963 0.2028-0.4047 1.1696z" fill="#008d9a"/>
   <path d="m71.426 142.31 0.57863-0.46506-0.17393-0.70449-0.4047 1.1696" fill="#038e79"/>
  </g>
  <g transform="matrix(1.3162 0 0 1.3162 58.795 -135.81)">
   <path d="m71.426 142.31 0.57863-0.46506-0.17393-0.70449-0.61964-0.2028-0.51823 0.41641 0.06055 0.69074z" fill="#008d9a"/>
   <path d="m70.753 142.04 0.67261 0.2652-0.21493-1.3724-0.45768 1.1072" fill="#00769a"/>
   <path d="m70.753 142.04-0.06055-0.69074 0.51823-0.41641-0.45768 1.1072" fill="#008d9a"/>
   <path d="m71.211 140.93 0.61963 0.2028-0.4047 1.1696z" fill="#008d9a"/>
   <path d="m71.426 142.31 0.57863-0.46506-0.17393-0.70449-0.4047 1.1696" fill="#038e79"/>
  </g>
  <text x="153.18834" y="43.158203" fill="#ff4000" font-family="sans-serif" font-size="1.4111px" stroke-width=".26458" style="line-height:1.25" xml:space="preserve"><tspan x="153.18834" y="43.158203" fill="#ff4000" font-size="1.4111px" stroke-width=".26458">AND</tspan></text>
  <g transform="matrix(-.017362 -1.0299 -.86853 .031537 277.17 86.151)">
   <path d="m48.823 143.89 3.8546 0.10887 0.07448 0.5711-3.8676 0.0359-0.06156-0.71589" fill="#038e79"/>
   <path d="m48.86 144.3 3.8922 0.27148-0.07448-0.57106-3.8177 0.29958" fill="#008d9a"/>
   <path d="m48.86 144.3-0.03694-0.40845 3.8485 0.10887-3.8116 0.29958" fill="#038e79"/>
   <path d="m48.866 144.3 0.01837 0.30738 3.8676-0.0359z" fill="#00769a"/>
  </g>
  <g transform="matrix(.72188 -.024596 -.025861 -.68658 102.78 137.44)">
   <g transform="matrix(.15279 -1.0384 .93953 .15988 -72.196 190.21)">
    <path d="m71.426 142.31 0.57863-0.46506-0.17393-0.70449-0.61964-0.2028-0.51823 0.41641 0.06055 0.69074z" fill="#008d9a"/>
    <path d="m70.753 142.04 0.67261 0.2652-0.21493-1.3724-0.45768 1.1072" fill="#00769a"/>
    <path d="m70.753 142.04-0.06055-0.69074 0.51823-0.41641-0.45768 1.1072" fill="#008d9a"/>
    <path d="m71.211 140.93 0.61963 0.2028-0.4047 1.1696z" fill="#008d9a"/>
    <path d="m71.426 142.31 0.57863-0.46506-0.17393-0.70449-0.4047 1.1696" fill="#038e79"/>
   </g>
  </g>
  <text transform="scale(.90558 1.1043)" x="164.94189" y="50.646423" fill="#ff9200" font-family="sans-serif" font-size="4.7065px" stroke-width=".11766" style="line-height:1.25" xml:space="preserve"><tspan x="164.94189" y="50.646423" fill="#ff9200" font-family="sans-serif" font-weight="bold" stroke-width=".11766">LOGIXX</tspan></text>
 </g>
</svg>
